<svg width="384" height="60" viewBox="0 0 384 60" fill="none" xmlns="http://www.w3.org/2000/svg">
<path d="M15.8203 38.2646C17.2998 38.2646 18.5156 38.1108 19.4678 37.8032C21.167 37.2319 22.5586 36.1333 23.6426 34.5073C24.5068 33.2036 25.1294 31.5337 25.5103 29.4976C25.73 28.2817 25.8398 27.1538 25.8398 26.1138C25.8398 22.1147 25.0415 19.0093 23.4448 16.7974C21.8628 14.5854 19.3066 13.4795 15.7764 13.4795H8.02002V38.2646H15.8203ZM3.62549 9.72217H16.6992C21.1377 9.72217 24.5801 11.2969 27.0264 14.4463C29.209 17.2881 30.3003 20.9282 30.3003 25.3667C30.3003 28.7944 29.6558 31.8926 28.3667 34.6611C26.0962 39.5537 22.1924 42 16.6553 42H3.62549V9.72217ZM36.3647 9.72217H59.8975V13.6772H40.6274V23.4771H58.4473V27.2124H40.6274V38.1548H60.2271V42H36.3647V9.72217ZM65.9619 9.72217H70.3345V38.1548H86.6821V42H65.9619V9.72217ZM111.16 9.72217V13.5674H100.283V42H95.8447V13.5674H84.9683V9.72217H111.16ZM128.408 28.7725L123.508 14.5122L118.301 28.7725H128.408ZM121.223 9.72217H126.167L137.878 42H133.088L129.814 32.332H117.048L113.555 42H109.072L121.223 9.72217ZM155.808 8.88721C158.84 8.88721 161.462 9.47314 163.674 10.645C166.882 12.3296 168.845 15.2812 169.563 19.5H165.234C164.707 17.1416 163.616 15.4277 161.96 14.3584C160.305 13.2744 158.218 12.7324 155.698 12.7324C152.71 12.7324 150.19 13.853 148.14 16.0942C146.104 18.3354 145.085 21.6753 145.085 26.1138C145.085 29.9517 145.928 33.0791 147.612 35.4961C149.297 37.8984 152.043 39.0996 155.852 39.0996C158.767 39.0996 161.177 38.2573 163.081 36.5728C165 34.8735 165.981 32.1343 166.025 28.355H155.918V24.7295H170.09V42H167.278L166.223 37.8472C164.744 39.4731 163.433 40.6011 162.29 41.231C160.371 42.3149 157.932 42.8569 154.973 42.8569C151.15 42.8569 147.861 41.6191 145.107 39.1436C142.104 36.0381 140.603 31.7754 140.603 26.3555C140.603 20.9502 142.068 16.6509 144.998 13.4575C147.781 10.4106 151.384 8.88721 155.808 8.88721ZM189.514 9.72217H193.931V23.0596H210.718V9.72217H215.134V42H210.718V26.9048H193.931V42H189.514V9.72217ZM222.341 9.72217H245.874V13.6772H226.604V23.4771H244.424V27.2124H226.604V38.1548H246.204V42H222.341V9.72217ZM266.946 24.5098C268.997 24.5098 270.615 24.0996 271.802 23.2793C273.003 22.459 273.604 20.9795 273.604 18.8408C273.604 16.541 272.769 14.9736 271.099 14.1387C270.205 13.6992 269.011 13.4795 267.517 13.4795H256.838V24.5098H266.946ZM252.466 9.72217H267.407C269.868 9.72217 271.897 10.0811 273.494 10.7988C276.526 12.1758 278.042 14.7173 278.042 18.4233C278.042 20.3569 277.639 21.939 276.833 23.1694C276.042 24.3999 274.929 25.3887 273.494 26.1357C274.753 26.6484 275.698 27.3223 276.328 28.1572C276.973 28.9922 277.332 30.3472 277.405 32.2222L277.559 36.5508C277.603 37.7812 277.705 38.6968 277.866 39.2974C278.13 40.3228 278.599 40.9819 279.272 41.2749V42H273.911C273.765 41.7217 273.647 41.3628 273.56 40.9233C273.472 40.4839 273.398 39.6343 273.34 38.3745L273.076 32.9912C272.974 30.8818 272.19 29.4683 270.725 28.7505C269.89 28.355 268.579 28.1572 266.792 28.1572H256.838V42H252.466V9.72217Z" fill="white"/>
<path d="M382.768 31.7678C383.744 30.7915 383.744 29.2085 382.768 28.2322L366.858 12.3223C365.882 11.346 364.299 11.346 363.322 12.3223C362.346 13.2986 362.346 14.8816 363.322 15.8579L377.464 30L363.322 44.1421C362.346 45.1184 362.346 46.7014 363.322 47.6777C364.299 48.654 365.882 48.654 366.858 47.6777L382.768 31.7678ZM341 32.5L381 32.5V27.5L341 27.5V32.5Z" fill="#FFFEFE"/>
</svg>
