<svg width="552" height="38" viewBox="0 0 552 38" fill="none" xmlns="http://www.w3.org/2000/svg">
<path d="M1.23223 17.2322C0.255924 18.2085 0.255924 19.7915 1.23223 20.7678L17.1421 36.6777C18.1184 37.654 19.7014 37.654 20.6777 36.6777C21.654 35.7014 21.654 34.1184 20.6777 33.1421L6.53553 19L20.6777 4.85786C21.654 3.88155 21.654 2.29864 20.6777 1.32233C19.7014 0.346017 18.1184 0.346017 17.1421 1.32233L1.23223 17.2322ZM43 16.5L3 16.5L3 21.5L43 21.5L43 16.5Z" fill="#FFFEFE"/>
<path d="M79.978 8.00684V11.1929H74.5947V26H70.8105V11.1929H65.4028V8.00684H79.978ZM81.8945 8.00684H85.6299V26H81.8945V8.00684ZM89.1455 8.00684H92.9053V22.7651H101.816V26H89.1455V8.00684ZM112.644 26H104.49V8.00684H113.23C115.435 8.03939 116.998 8.67822 117.917 9.92334C118.471 10.6883 118.748 11.6038 118.748 12.6699C118.748 13.7686 118.471 14.6515 117.917 15.3188C117.608 15.6932 117.153 16.035 116.55 16.3442C117.47 16.6779 118.162 17.2069 118.625 17.9312C119.097 18.6554 119.333 19.5343 119.333 20.5679C119.333 21.634 119.065 22.5902 118.528 23.4365C118.186 23.998 117.759 24.4701 117.246 24.8525C116.668 25.292 115.985 25.5931 115.195 25.7559C114.414 25.9186 113.564 26 112.644 26ZM112.559 18.0776H108.079V22.875H112.498C113.287 22.875 113.901 22.7692 114.341 22.5576C115.138 22.167 115.537 21.4183 115.537 20.3115C115.537 19.3757 115.151 18.7327 114.377 18.3828C113.946 18.1875 113.34 18.0858 112.559 18.0776ZM114.426 14.6475C114.915 14.3545 115.159 13.8296 115.159 13.0728C115.159 12.2345 114.833 11.6812 114.182 11.4126C113.621 11.2254 112.904 11.1318 112.034 11.1318H108.079V15.0991H112.498C113.287 15.0991 113.93 14.9486 114.426 14.6475ZM133.03 22.3013H126.401L125.156 26H121.226L127.646 8.00684H131.895L138.267 26H134.189L133.03 22.3013ZM131.98 19.2007L129.734 12.1206L127.415 19.2007H131.98ZM151.597 25.5605C150.604 26.1709 149.383 26.4761 147.935 26.4761C145.55 26.4761 143.597 25.6501 142.075 23.998C140.488 22.3379 139.695 20.0674 139.695 17.1865C139.695 14.2731 140.496 11.9375 142.1 10.1797C143.703 8.42188 145.823 7.54297 148.459 7.54297C150.746 7.54297 152.581 8.12484 153.965 9.28857C155.356 10.4442 156.154 11.8887 156.357 13.6221H152.659C152.374 12.3932 151.678 11.5347 150.571 11.0464C149.953 10.7778 149.265 10.6436 148.508 10.6436C147.06 10.6436 145.868 11.1929 144.932 12.2915C144.004 13.382 143.54 15.0259 143.54 17.2231C143.54 19.4367 144.045 21.0033 145.054 21.9229C146.063 22.8424 147.21 23.3022 148.496 23.3022C149.757 23.3022 150.791 22.9401 151.597 22.2158C152.402 21.4834 152.899 20.5272 153.086 19.3472H148.923V16.3442H156.418V26H153.928L153.55 23.7539C152.826 24.6084 152.174 25.2106 151.597 25.5605ZM172.544 18.1387H163.804V22.7651H173.765V26H160.129V8.00684H173.325V11.1929H163.804V15.0137H172.544V18.1387ZM196.726 8.00684V11.1929H191.343V26H187.559V11.1929H182.151V8.00684H196.726ZM198.643 8.00684H202.378V26H198.643V8.00684ZM205.894 8.00684H209.653V22.7651H218.564V26H205.894V8.00684ZM237.302 22.3013H230.674L229.429 26H225.498L231.919 8.00684H236.167L242.539 26H238.462L237.302 22.3013ZM236.252 19.2007L234.006 12.1206L231.687 19.2007H236.252ZM244.834 8.00684H248.594V22.7651H257.505V26H244.834V8.00684ZM260.117 8.00684H263.877V22.7651H272.788V26H260.117V8.00684ZM287.925 18.1387H279.185V22.7651H289.146V26H275.51V8.00684H288.706V11.1929H279.185V15.0137H287.925V18.1387ZM297.703 8.00684H301.719L305.625 21.6665L309.568 8.00684H313.474L307.334 26H303.782L297.703 8.00684ZM328.318 15.0625H336.655V18.1387H328.318V22.8262H337.754V26H324.619V22.1914H319.236L317.93 26H314.023L320.566 8.06787H337.583V11.1929H328.318V15.0625ZM320.225 19.2373H324.619V11.1318H322.996L320.225 19.2373ZM348.35 18.9443H344.468V26H340.793V8.00684H349.619C350.881 8.03125 351.849 8.18587 352.524 8.4707C353.208 8.75553 353.786 9.17464 354.258 9.72803C354.648 10.1838 354.958 10.6883 355.186 11.2417C355.413 11.7951 355.527 12.4258 355.527 13.1338C355.527 13.9883 355.312 14.8306 354.88 15.6606C354.449 16.4826 353.737 17.0645 352.744 17.4062C353.574 17.7399 354.16 18.216 354.502 18.8345C354.852 19.4448 355.027 20.3807 355.027 21.6421V22.8506C355.027 23.6725 355.059 24.23 355.125 24.5229C355.222 24.9868 355.45 25.3286 355.808 25.5483V26H351.67C351.556 25.6012 351.475 25.2798 351.426 25.0356C351.328 24.5311 351.275 24.0143 351.267 23.4854L351.243 21.813C351.226 20.6655 351.015 19.9006 350.608 19.5181C350.209 19.1356 349.456 18.9443 348.35 18.9443ZM350.632 15.6729C351.381 15.3311 351.755 14.6556 351.755 13.6465C351.755 12.556 351.393 11.8236 350.669 11.4492C350.262 11.2376 349.652 11.1318 348.838 11.1318H344.468V15.9658H348.728C349.574 15.9658 350.209 15.8682 350.632 15.6729ZM374.717 26H369.883L364.329 18.1387L362.534 19.9819V26H358.835V8.00684H362.534V15.4165L369.48 8.00684H374.338L366.965 15.4165L374.717 26ZM389.365 18.1387H380.625V22.7651H390.586V26H376.951V8.00684H390.146V11.1929H380.625V15.0137H389.365V18.1387ZM401.157 18.9443H397.275V26H393.601V8.00684H402.427C403.688 8.03125 404.657 8.18587 405.332 8.4707C406.016 8.75553 406.593 9.17464 407.065 9.72803C407.456 10.1838 407.765 10.6883 407.993 11.2417C408.221 11.7951 408.335 12.4258 408.335 13.1338C408.335 13.9883 408.119 14.8306 407.688 15.6606C407.257 16.4826 406.545 17.0645 405.552 17.4062C406.382 17.7399 406.968 18.216 407.31 18.8345C407.66 19.4448 407.834 20.3807 407.834 21.6421V22.8506C407.834 23.6725 407.867 24.23 407.932 24.5229C408.03 24.9868 408.258 25.3286 408.616 25.5483V26H404.478C404.364 25.6012 404.282 25.2798 404.233 25.0356C404.136 24.5311 404.083 24.0143 404.075 23.4854L404.05 21.813C404.034 20.6655 403.822 19.9006 403.416 19.5181C403.017 19.1356 402.264 18.9443 401.157 18.9443ZM403.44 15.6729C404.189 15.3311 404.563 14.6556 404.563 13.6465C404.563 12.556 404.201 11.8236 403.477 11.4492C403.07 11.2376 402.459 11.1318 401.646 11.1318H397.275V15.9658H401.536C402.382 15.9658 403.017 15.8682 403.44 15.6729Z" fill="white"/>
<path d="M65 28.5024H409.666V29.7354H65V28.5024Z" fill="white"/>
</svg>
